<?xml version="1.0" encoding="UTF-8" standalone="no"?>
<!-- Created with Inkscape (http://www.inkscape.org/) -->

<svg
   xmlns:dc="http://purl.org/dc/elements/1.1/"
   xmlns:cc="http://creativecommons.org/ns#"
   xmlns:rdf="http://www.w3.org/1999/02/22-rdf-syntax-ns#"
   xmlns:svg="http://www.w3.org/2000/svg"
   xmlns="http://www.w3.org/2000/svg"
   xmlns:sodipodi="http://sodipodi.sourceforge.net/DTD/sodipodi-0.dtd"
   xmlns:inkscape="http://www.inkscape.org/namespaces/inkscape"
   width="500mm"
   height="250mm"
   viewBox="0 0 500 250"
   version="1.1"
   id="svg5156"
   inkscape:version="0.92.4 (5da689c313, 2019-01-14)"
   sodipodi:docname="logo-vertical.svg">
  <defs
     id="defs5150" />
  <sodipodi:namedview
     id="base"
     pagecolor="#ffffff"
     bordercolor="#666666"
     borderopacity="1.0"
     inkscape:pageopacity="0.0"
     inkscape:pageshadow="2"
     inkscape:zoom="0.7"
     inkscape:cx="1132.8868"
     inkscape:cy="594.10882"
     inkscape:document-units="mm"
     inkscape:current-layer="g917"
     showgrid="false"
     inkscape:window-width="1920"
     inkscape:window-height="1027"
     inkscape:window-x="-8"
     inkscape:window-y="-8"
     inkscape:window-maximized="1" />
  <metadata
     id="metadata5153">
    <rdf:RDF>
      <cc:Work
         rdf:about="">
        <dc:format>image/svg+xml</dc:format>
        <dc:type
           rdf:resource="http://purl.org/dc/dcmitype/StillImage" />
        <dc:title></dc:title>
      </cc:Work>
    </rdf:RDF>
  </metadata>
  <g
     inkscape:label="Layer 1"
     inkscape:groupmode="layer"
     id="layer1"
     transform="translate(0,-47)">
    <flowRoot
       xml:space="preserve"
       id="flowRoot1509"
       style="font-style:normal;font-variant:normal;font-weight:normal;font-stretch:normal;font-size:192px;line-height:1.25;font-family:'Lucida Bright';-inkscape-font-specification:'Lucida Bright';letter-spacing:0px;word-spacing:0px;fill:#000000;fill-opacity:1;stroke:none"
       transform="matrix(0.66517004,0,0,0.66517004,-356.34146,178.73896)"><flowRegion
         id="flowRegion1511"
         style="font-style:normal;font-variant:normal;font-weight:normal;font-stretch:normal;font-size:192px;font-family:'Lucida Bright';-inkscape-font-specification:'Lucida Bright'"><rect
           id="rect1513"
           width="1355.7142"
           height="565.71429"
           x="535.71429"
           y="-0.21371926"
           style="font-style:normal;font-variant:normal;font-weight:normal;font-stretch:normal;font-size:192px;font-family:'Lucida Bright';-inkscape-font-specification:'Lucida Bright'" /></flowRegion><flowPara
         id="flowPara1515"
         style="fill:#ff2525;fill-opacity:1">Avanext</flowPara></flowRoot>    <g
       id="g917"
       inkscape:export-xdpi="96"
       inkscape:export-ydpi="96"
       transform="translate(175.00001,-100.00001)">
      <g
         id="g5775">
        <path
           transform="matrix(0.26458333,0,0,0.26458333,-175.00001,147.00001)"
           id="path815"
           d="M 661.41797 0 L 661.41797 37.794922 L 907.08594 160.63086 L 1152.7559 283.46484 L 907.08594 406.29883 L 661.41797 529.13477 L 661.41797 566.92969 L 944.88281 425.19727 L 1228.3457 283.46484 L 944.88281 141.73242 L 661.41797 0 z M 661.41797 75.589844 L 661.41797 113.38672 L 831.49609 198.42578 L 1001.5742 283.46484 L 831.49609 368.50391 L 661.41797 453.54297 L 661.41797 491.33789 L 869.29102 387.40234 L 1077.166 283.46484 L 869.29102 179.52734 L 661.41797 75.589844 z M 661.41797 151.18164 L 661.41797 188.97656 L 755.90625 236.2207 L 850.39453 283.46484 L 755.90625 330.70898 L 661.41797 377.95312 L 661.41797 415.74805 L 793.70117 349.60547 L 925.98438 283.46484 L 793.70117 217.32227 L 661.41797 151.18164 z M 661.41797 226.77148 L 661.41797 283.46484 L 661.41797 340.1582 L 718.10938 311.81055 L 774.80273 283.46484 L 718.10938 255.11719 L 661.41797 226.77148 z "
           style="opacity:1;fill:#ff2525;fill-opacity:1;stroke-width:1.35087168" />
        <rect
           style="opacity:1;fill:#ff2525;fill-opacity:1;stroke-width:0.26458332"
           id="rect907"
           width="10"
           height="130"
           x="-1.3554641e-15"
           y="157" />
      </g>
    </g>
  </g>
</svg>
