<?xml version="1.0" encoding="UTF-8" standalone="no"?>
<!-- Created with Inkscape (http://www.inkscape.org/) -->

<svg
   xmlns:dc="http://purl.org/dc/elements/1.1/"
   xmlns:cc="http://creativecommons.org/ns#"
   xmlns:rdf="http://www.w3.org/1999/02/22-rdf-syntax-ns#"
   xmlns:svg="http://www.w3.org/2000/svg"
   xmlns="http://www.w3.org/2000/svg"
   xmlns:sodipodi="http://sodipodi.sourceforge.net/DTD/sodipodi-0.dtd"
   xmlns:inkscape="http://www.inkscape.org/namespaces/inkscape"
   width="150mm"
   height="150mm"
   viewBox="0 0 150 150"
   version="1.1"
   id="svg8"
   inkscape:version="0.92.4 (5da689c313, 2019-01-14)"
   sodipodi:docname="logotipo.svg"
   inkscape:export-filename="C:\Users\Avanade\Documents\avanext\src\assets\img\logotipo.png"
   inkscape:export-xdpi="96"
   inkscape:export-ydpi="96">
  <defs
     id="defs2" />
  <sodipodi:namedview
     id="base"
     pagecolor="#ffffff"
     bordercolor="#666666"
     borderopacity="1.0"
     inkscape:pageopacity="0.0"
     inkscape:pageshadow="2"
     inkscape:zoom="1"
     inkscape:cx="121.06796"
     inkscape:cy="352.19506"
     inkscape:document-units="mm"
     inkscape:current-layer="layer1"
     showgrid="false"
     inkscape:window-width="1920"
     inkscape:window-height="1027"
     inkscape:window-x="-8"
     inkscape:window-y="-8"
     inkscape:window-maximized="1" />
  <metadata
     id="metadata5">
    <rdf:RDF>
      <cc:Work
         rdf:about="">
        <dc:format>image/svg+xml</dc:format>
        <dc:type
           rdf:resource="http://purl.org/dc/dcmitype/StillImage" />
        <dc:title />
      </cc:Work>
    </rdf:RDF>
  </metadata>
  <g
     inkscape:label="Layer 1"
     inkscape:groupmode="layer"
     id="layer1"
     transform="translate(0,-147)">
    <g
       transform="translate(0,-1.5525607e-4)"
       id="g5775"
       inkscape:export-xdpi="96"
       inkscape:export-ydpi="96">
      <path
         inkscape:connector-curvature="0"
         transform="matrix(0.26458333,0,0,0.26458333,-175.00001,147.00001)"
         id="path815"
         d="M 661.41797,0 V 37.794922 L 907.08594,160.63086 1152.7559,283.46484 907.08594,406.29883 661.41797,529.13477 v 37.79492 L 944.88281,425.19727 1228.3457,283.46484 944.88281,141.73242 Z m 0,75.589844 v 37.796876 l 170.07812,85.03906 170.07811,85.03906 -170.07811,85.03907 -170.07812,85.03906 v 37.79492 L 869.29102,387.40234 1077.166,283.46484 869.29102,179.52734 Z m 0,75.591796 v 37.79492 l 94.48828,47.24414 94.48828,47.24414 -94.48828,47.24414 -94.48828,47.24414 v 37.79493 l 132.2832,-66.14258 132.28321,-66.14063 -132.28321,-66.14257 z m 0,75.58984 v 56.69336 56.69336 l 56.69141,-28.34765 56.69335,-28.34571 -56.69335,-28.34765 z"
         style="opacity:1;fill:#ff2525;fill-opacity:1;stroke-width:1.35087168" />
      <rect
         style="opacity:1;fill:#ff2525;fill-opacity:1;stroke-width:0.26458332"
         id="rect907"
         width="10"
         height="130"
         x="-1.3554641e-15"
         y="157" />
    </g>
  </g>
</svg>
